<svg width="352" height="737" viewBox="0 0 352 737" fill="none" xmlns="http://www.w3.org/2000/svg">
<path d="M193.407 0.531246C203.942 1.47228 217.563 4.27338 227.584 7.51328C230.728 8.51954 229.112 8.091 231.27 8.81535C235.476 10.2522 239.382 11.6781 243.418 13.4028C244.754 13.9783 243.036 13.39 244.438 13.9948C252.112 17.333 259.187 20.9127 266.427 25.3095C302.069 46.9955 329.384 80.9367 342.529 121.05C346.956 134.258 350.084 150.959 350.914 165.307C351.018 166.986 351.069 165.979 351.097 166.298C351.476 171.285 351.171 169.629 351.224 172.897C351.234 173.959 351.235 175.032 351.226 176.116C351.135 188.162 351.129 201.194 351.168 212.598C351.187 217.881 351.406 212.584 351.283 217.904C351.275 218.273 351.157 216.933 351.145 218.382C351.117 221.668 351.138 227.902 351.128 230.449C351.11 235.357 351.111 236.169 351.11 240.812C351.107 247.158 351.049 254.707 351.075 261.516C351.081 262.969 351.202 261.045 351.222 263.363C351.242 265.683 351.232 271.821 351.204 273.89C351.176 275.96 351.081 275.078 351.059 275.445C350.876 278.458 351.13 285.558 351.136 286.471C351.243 303.126 351.098 317.409 351.099 333.042C351.099 344.911 351.147 357.602 351.141 368.895C351.132 382.349 351.067 393.752 351.078 406.823C351.079 408.202 351.221 406.586 351.222 408.271C351.239 426.17 351.223 443.945 351.128 461.768C351.118 463.555 350.994 461.251 350.977 463.037C350.875 473.97 350.63 491.269 351.17 497.763C351.149 505.168 351.127 514.159 351.018 520.785C350.948 525.056 350.813 520.907 350.871 526.155C350.884 527.339 351.002 525.799 351.012 527.574C351.056 535.047 351.017 543.211 351.078 550.603C351.091 552.107 351.197 551.696 351.217 552.123C351.331 554.768 351.221 558.712 351.148 561.116C351.123 561.974 351.096 562.636 351.087 562.978C350.802 572.88 350.194 580.157 348.763 589.275C348.413 591.397 348.97 588.912 348.632 590.954C346.857 601.522 343.938 612.286 340.224 622.097C339.392 624.281 340.033 622.226 339.627 623.266C337.805 627.832 337.599 628.916 335.639 633.214C335.22 634.115 335.356 633.562 335.27 633.722C333.936 636.226 333.073 638.542 332.751 639.2C328.661 647.472 325.414 652.442 320.475 659.844C319.876 660.726 321.35 658.819 319.65 661.291C308.313 677.745 293.168 692.93 276.96 704.241C274.438 705.997 276.175 704.653 276.01 704.755C273.321 706.406 271.758 707.724 270.923 708.28C264.33 712.658 257.741 715.989 253.056 718.632C228.928 730.475 202.183 736.7 175.477 736.569C168.881 736.544 162.335 736.144 155.829 735.365C155.409 735.315 156.175 735.275 155.338 735.174C145.318 733.818 147.202 734.204 140.576 733.214C138.897 732.959 133.943 731.524 133.517 731.38C131.932 730.907 133.64 731.138 133.107 730.99C128.708 729.732 129.24 730.559 123.317 728.773C123.132 728.715 123.941 728.847 123.45 728.682C121.915 728.169 120.375 727.715 118.892 727.169C115.51 725.896 114.388 725.209 109.21 723.313C108.559 723.055 109.4 723.849 104.324 721.617C102.281 720.781 93.5113 716.473 91.1613 715.071C88.7791 713.726 90.4774 714.537 90.3086 714.439C83.9887 710.665 86.4574 711.982 83.4215 709.888C80.4229 707.748 81.0103 708.725 79.7158 707.96C78.4128 707.206 74.0371 704.042 73.0032 703.215C71.9572 702.404 73.3344 703.315 72.3978 702.604C66.2441 697.815 69.5004 700.758 67.4057 699.26C62.5108 695.66 59.1868 692.252 55.1758 688.425C54.0941 687.383 54.9198 688.293 53.9482 687.374C50.126 683.703 47.9892 681.334 43.903 676.904C43.2302 676.186 39.871 672.631 38.0576 670.039C37.8007 669.673 38.6599 670.611 37.2825 668.822C35.2132 666.156 31.666 661.226 29.6461 658.214C28.1519 655.995 29.6976 658.649 27.9024 655.797C27.1142 654.523 28.6848 656.813 27.2039 654.421C25.7045 652.052 22.1123 645.873 20.8614 643.454C19.5894 641.056 20.1778 642.424 20.0672 642.235C19.391 641.092 17.0273 636.427 16.8491 636.006C6.93772 614.945 1.88915 593.656 0.502053 571.091C0.401185 569.309 0.33713 570.503 0.320401 570.231C0.0104574 564.173 0.530263 568.941 0.524388 564.698C0.336092 565.178 0.272579 563.781 0.259229 561.116C0.256116 560.35 0.253526 559.478 0.247123 558.517C0.233178 556.456 0.132547 557.578 0.122246 557.39C-0.0305998 554.333 0.16682 552.204 0.207206 551.656C0.355767 549.631 0.180232 547.428 0.279533 546.05C0.378091 544.674 0.524202 547.842 0.52233 543.74C0.429299 542.589 0.186184 545.635 0.146782 542.52C-0.00225759 530.767 0.188491 508.829 0.208305 499.379C0.228103 489.948 0.210938 486.902 0.24456 481.406C0.305351 471.48 0.124975 475.117 0.042412 468.954C-0.0401414 462.772 0.403669 465.777 0.499076 464.888C0.59444 464.016 0.496272 463.064 0.548697 461.979C0.601109 460.897 0.665979 463.239 0.68566 460.695C0.705321 458.15 0.535663 451.191 0.435904 450.289C0.224558 448.382 0.00274158 451.518 0.080681 444.783C0.0853063 444.396 0.202004 445.653 0.213798 444.17C0.303637 432.391 0.309206 420.154 0.388663 408.389C0.399772 406.771 0.529594 408.218 0.537528 407.276C0.620565 397.47 0.401668 400.976 0.158501 395.601C0.482104 396.808 0.680086 393.836 0.681997 386.394C0.68326 381.92 0.541926 382.69 0.442313 379.797C0.412285 378.929 0.50933 375.763 0.442862 375.19C0.22559 373.298 -0.0176326 376.28 0.0792161 368.607C0.0838187 368.27 0.20275 369.342 0.209953 368.179C0.257098 360.66 0.0298343 359.76 0.00231206 351.633C-0.0192834 345.262 0.119299 333.932 0.141838 326.678C0.505663 326.83 0.422351 319.979 0.171501 317.2C0.181771 312.492 0.16759 307.407 0.202263 302.857C0.214084 301.291 0.319421 302.32 0.330802 302.123C0.509347 299.095 0.265297 297.048 0.255729 296.032C0.162723 285.019 0.347693 276.046 0.166923 265.535C0.160413 265.163 -0.092311 264.558 0.0922166 261.748C0.104936 261.567 0.219921 265.038 0.228813 260.094C0.237724 255.149 0.373203 245.827 0.256095 238.962C0.227902 237.301 0.0227422 233.098 0.183037 229.726C0.204803 229.277 0.277285 229.768 0.317619 229.12C0.446137 227.023 0.190696 225.878 0.407706 223.414C0.624707 220.95 0.787224 215.824 0.637503 208.9C0.63315 208.68 0.430689 207.041 0.43389 204.864C0.439175 201.388 0.481351 196.454 0.480033 192.825C0.479328 191.087 0.353609 192.199 0.35131 191.898C0.316462 186.119 0.326276 181.163 0.350981 176.116C0.382475 170.931 0.615788 165.689 1.22967 159.398C1.4311 157.11 2.04202 150.547 2.96507 146.176C4.02206 141.406 3.50808 146.423 5.79415 135.468C6.78871 131.097 7.48351 125.312 10.5673 117.769C15.7636 102.896 22.6395 89.9017 31.462 76.8138C31.8583 76.2246 32.9707 74.2578 33.9626 72.9112C35.4327 70.9132 36.3454 69.8921 37.4381 68.4986C42.0339 62.6742 46.4877 57.5254 51.5487 52.462C53.4814 50.5514 52.8712 51.2859 55.2166 49.0517C57.5784 46.8388 59.0752 45.2717 62.4611 42.4761C65.0292 40.3751 67.7772 38.5135 71.3164 35.9148C71.2885 35.5985 73.6813 33.7569 78.0964 30.6949C78.9457 30.1093 77.9719 30.6431 78.3712 30.362C79.9966 29.217 81.5885 28.2895 83.1639 27.2456C83.5475 26.9921 83.5157 26.8994 83.8276 26.6884C86.4657 24.8746 91.1682 22.4832 91.9878 22.0978C95.098 20.5805 96.4869 19.7439 98.8991 18.6226C101.311 17.5203 97.7724 19.3007 100.575 17.9946C106.382 15.2869 114.042 12.1843 120.218 10.1621C122.689 9.35085 120.964 9.78357 121.317 9.6645C126.416 7.95984 131.724 6.70797 134.553 5.77798C138.331 5.59506 137.693 4.88975 145.272 3.63482C145.872 3.54341 146.68 3.71398 144.402 4.16191C142.13 4.61189 138.659 5.20463 135.538 6.01262C134.794 6.18873 130.645 7.5357 130.074 7.72216C125.615 9.08467 124.872 8.87842 124.624 8.91566C121.856 9.44381 116.893 11.4788 115.598 11.9946C109.59 14.2994 104.554 16.4133 99.748 18.8035C96.605 20.3869 96.4436 20.8238 94.0026 22.0928C85.9496 26.4267 82.9851 27.7713 76.0573 32.9357C74.5965 34.077 76.2446 33.2211 70.7689 36.9506C70.4206 37.1773 66.3693 39.9928 64.2894 41.9421C64.0268 42.1851 64.0975 42.2523 63.7417 42.5605C61.362 44.6318 59.7285 45.9586 57.2262 48.315C54.7273 50.674 51.8177 53.6051 49.0998 56.4316C47.4563 58.1288 45.295 60.2653 44.5167 61.0904C42.3037 63.4071 40.2865 66.1931 38.9364 67.6488C37.5779 69.1259 39.7987 65.8878 36.4959 69.9787C36.5778 70.2866 36.5131 70.7987 36.5274 71.2004C29.606 80.345 23.6072 89.9763 18.597 100.346C17.98 101.632 18.7317 100.376 18.0798 101.757C15.3533 107.597 13.1151 112.786 10.9501 119.115C9.27752 124.022 7.80088 129.508 6.55904 134.771C5.46183 137.902 3.90799 145.803 3.11083 151.587C2.82216 153.608 2.76783 153.464 2.56319 154.906C1.84762 160.365 2.40396 157.831 2.28662 159.327C1.90958 165.75 1.26307 166.28 1.10922 173.902C1.10738 174.069 1.14815 175.015 1.21159 176.116C1.30114 177.676 1.4116 179.544 1.42284 179.945C1.54778 184.279 1.31575 180.662 1.29302 183.375C1.25148 188.328 1.178 191.77 1.26812 197.582C1.29481 199.277 1.48658 203.342 1.33825 206.632C1.31882 207.065 1.21713 206.826 1.21117 207.174C1.11189 213.482 1.43144 213.648 1.53966 217.252C1.64786 220.857 1.42727 226.425 1.3637 227.558C1.19923 230.522 1.29341 225.286 1.27727 225.126C1.0852 223.24 1.11827 227.301 1.10204 230.403C0.788723 230.853 0.80753 235.192 1.08648 233.62C1.11694 233.441 1.08773 231.026 1.10204 230.403C1.40945 233.127 1.44882 237.895 1.16155 243.162C1.02691 245.628 0.86993 243.297 0.927358 250.787C0.953282 254.186 1.16902 252.872 1.22783 255.872C1.36203 262.724 1.16079 271.629 1.19249 278.694C1.20401 281.258 1.3221 278.76 1.33403 280.513C1.36608 285.163 1.27747 289.264 1.32286 293.935C1.32713 294.358 1.45074 293.324 1.45232 294.777C1.46668 305.787 1.3875 315.375 1.3853 326.87C1.3843 332.425 1.45248 342.355 1.43877 348.109C1.41574 358.082 1.23598 370.35 1.27965 378.87C1.3076 384.426 1.43125 383.207 1.51549 385.588C1.67879 390.182 1.38628 398.315 1.34099 399.41C1.33949 399.443 1.31035 394.662 1.24688 397.213C1.11463 398.697 1.34042 399.356 1.34099 399.41C1.31173 400.129 1.28366 409.68 1.3073 411.577C1.32022 412.608 1.43736 412.031 1.44188 412.568C1.54672 425.34 1.57649 438.134 1.52172 451.088C1.51935 451.316 1.38832 450.973 1.38439 451.509C1.32613 459.008 1.48642 463.81 1.58159 469.995C1.67672 476.179 1.64486 481.083 1.41991 484.744C1.44823 489.41 1.34878 496.104 1.28844 499.956C1.2281 503.809 1.48317 504.346 1.48821 504.685C1.6496 515.257 1.50361 521.368 1.48088 532.336C1.46964 537.55 1.50664 547.893 1.53453 553.539C1.54967 556.544 1.5275 558.744 1.52308 561.116C1.52109 562.267 1.53349 563.455 1.57349 564.791C1.59044 565.344 1.69195 564.783 1.69996 564.951C1.96164 569.501 1.63114 567.32 1.61119 568.262C1.58746 571.663 1.5756 573.823 2.24609 579.615C2.39869 580.965 3.26811 584.817 3.66625 587.223C4.18896 590.374 3.84881 589.213 4.46409 592.497C4.52021 592.777 4.58724 592.706 4.9744 594.725C6.78363 604.123 9.59849 614.207 13.1908 623.482C13.6827 624.749 13.1804 623.076 13.8993 624.901C17.2776 633.463 21.7604 642.521 26.3311 650.241C27.4556 652.138 26.6582 651.005 26.8812 651.43C28.254 654.049 30.7691 657.398 31.1623 657.959C40.5268 671.435 48.731 681.139 61.3407 692.159C62.0151 692.779 67.5617 697.064 69.927 699.12C70.0853 699.263 72.4052 701.337 74.7365 702.787C74.8824 702.875 73.3772 701.664 76.1206 703.615C78.8694 705.565 83.4408 708.465 87.3639 710.919C88.5995 711.697 91.4883 713.663 95.4544 715.506C95.7042 715.651 101.93 718.269 104.011 719.494C104.352 719.686 103.827 719.865 108.702 721.751C109.635 722.101 107.989 721.352 110.434 722.303C114.187 723.754 119.161 725.659 123.939 726.985C124.766 727.222 128.328 728.071 131.139 728.97C131.58 729.112 130.704 728.995 132.208 729.396C139.338 731.288 147.008 732.661 154.43 733.625C157.072 733.957 155.707 733.981 158.461 734.307C161.197 734.641 166.821 735.053 169.705 735.047C172.611 735.046 169.443 734.713 173.797 734.76C174.357 734.763 174.917 734.763 175.477 734.761C193.817 734.684 211.973 731.986 229.4 726.327C232.057 725.446 229.836 726.11 233.723 724.752C248.254 720.081 271.211 707.034 281.527 698.763C289.916 692.32 279.592 700.73 285.937 695.711C288.986 693.261 291.915 690.196 292.599 689.552C299.294 683.25 303.779 678.674 309.077 672.31C310.161 670.988 308.995 672.198 309.913 671.072C313.044 667.22 316.215 663.071 318.886 659.146C320.08 657.381 319.778 657.654 320.862 656.023C323.437 652.108 325.6 648.578 327.886 644.614C328.094 644.252 326.849 646.778 328.52 643.733C331.207 638.807 334.317 632.541 336.651 626.511C337.335 624.72 337.182 624.583 338.761 620.768C339.077 619.965 338.998 621.109 340.333 616.491C340.592 615.715 342.698 607.95 343.818 604.144C344.128 603.151 344.977 600.618 345.432 598.35C345.493 598.042 345.112 599.244 345.502 597.37C346.863 590.786 347.938 583.797 348.517 576.903C348.666 575.067 348.31 577.791 348.527 575.053C348.852 570.769 349.066 565.921 349.075 561.116C349.085 557.43 349.101 553.808 349.117 550.575C349.132 547.827 349.235 549.726 349.246 549.526C349.429 546.311 349.183 544.41 349.168 543.343C349.082 536.706 349.198 531.652 349.167 525.535C349.159 523.846 349.042 525.043 349.031 524.707C348.929 521.222 349.14 523.818 349.163 521.612C349.229 515.431 349.219 508.542 349.204 502.291C349.199 499.996 349.063 502.576 349.059 500.516C349.036 488.321 349.049 475.644 349.124 463.743C349.138 461.502 349.243 462.912 349.267 462.445C349.434 459.226 349.206 454.509 349.184 453.423C349.085 448.488 349.177 446.57 349.16 442.212C349.074 420.919 349.135 394.628 349.173 374.529C349.222 348.338 349.322 328.014 349.296 303.038C349.294 301.451 349.155 303.051 349.152 301.683C349.118 284.016 349.173 266.623 349.132 248.921C349.129 247.468 348.997 249.562 348.988 247.231C348.968 242.448 348.975 236.39 349.017 231.554C349.037 229.196 349.151 232.359 349.169 229.985C349.212 224.458 349.221 218.532 349.2 212.854C349.191 210.438 349.055 214.084 349.054 210.943C349.046 199.274 349.036 187.719 349.057 176.116C349.073 166.509 348.335 156.885 346.806 147.254C346.57 145.8 346.631 144.473 345.966 141.42C345.845 141.205 345.759 141.236 345.659 141.152C339.441 110.858 325.179 82.5784 304.366 59.5683C303.487 58.6008 304.902 60.3667 303.194 58.4999C293.262 47.7428 282.318 38.5036 269.838 30.2216C268.592 29.4111 269.394 29.5753 265.632 27.3092C264.985 26.8888 259.245 23.6107 257.698 22.8828C257.489 22.7817 258.494 23.4518 256.618 22.456C245.696 16.6775 233.61 11.8509 221.726 8.52107C219.804 7.98539 221.888 8.41859 220.518 8.039C210.809 5.34797 199.959 3.59785 190.374 2.69416C183.958 2.12917 186.325 2.09956 182.924 1.70687C182.445 1.64413 178.445 1.52913 178.236 1.41074C177.707 1.08429 179.662 0.771926 178.869 0.419341C178.741 0.353361 175.479 0.35812 175.477 0.302353L-nan -nanL175.477 1.11633L-nan -nanL175.477 0.302325C175.477 0.284092 175.761 0.256033 176.492 0.219843C176.719 0.199459 180.644 0.206151 181.606 0.191859C182.278 0.174458 181.074 0.00216246 182.444 5.59092e-05C183.811 0.00171459 185.315 0.176582 187.596 0.267672C189.87 0.374806 188.892 0.11937 193.407 0.531246ZM1.01873 517.301C0.896234 520.868 1.34488 521.395 1.23754 517.537C1.23182 517.35 1.02474 517.117 1.01873 517.301ZM23.6813 89.9242C21.2096 93.882 20.0434 96.8558 21.698 94.027C23.3749 91.2133 24.4407 88.7266 23.6813 89.9242ZM52.8727 51.7014C48.9161 55.4439 48.7887 56.5027 52.786 52.2814C53.0207 52.0384 53.1057 51.4848 52.8727 51.7014ZM198.799 3.03299C198.753 3.01512 195.896 2.65265 195.825 2.65613C194.288 2.60931 199.997 3.32808 198.799 3.03299ZM91.0492 22.9854C89.5068 23.7167 85.3397 26.2841 87.2144 25.3073C88.7114 24.5061 92.9549 22.056 91.0492 22.9854ZM55.2175 688.163C55.2517 688.208 56.7578 689.625 56.7548 689.567C56.7303 689.386 54.6147 687.44 55.2175 688.163ZM168.845 1.40154C156.819 1.94073 149.511 2.47186 162.589 1.25437C164.961 1.0789 157.496 1.83412 160.514 1.63317C166.046 1.27225 169.686 0.783405 175.373 0.936057C176.394 0.945212 169.518 1.34337 168.823 1.40307C168.831 1.40255 168.838 1.40205 168.845 1.40154ZM0.47985 519.355C0.473917 519.427 0.468292 522.289 0.474173 522.358C0.616604 523.908 0.62802 518.141 0.47985 519.355ZM163.477 735.926C163.639 735.98 170.275 736.31 170.493 736.274C173.96 736.203 160.552 735.558 163.477 735.926ZM0.151543 326.564C0.00825584 323.44 -0.0086146 319.704 0.171318 317.214C0.161766 320.318 0.160359 323.443 0.151543 326.564Z" fill="white"/>
</svg>
